<svg xmlns="http://www.w3.org/2000/svg" width="16" height="16" fill="none"><path stroke="#0E0E0E" stroke-linecap="round" stroke-linejoin="round" d="M7.522 2.302c.153-.311.23-.467.334-.517a.333.333 0 0 1 .287 0c.105.05.182.206.335.517l1.458 2.953a.733.733 0 0 0 .101.174.35.35 0 0 0 .104.075c.044.02.095.028.196.043l3.26.477c.344.05.516.075.595.159.07.073.102.173.089.273-.015.114-.14.235-.388.477l-2.359 2.298a.727.727 0 0 0-.134.15.334.334 0 0 0-.04.122.73.73 0 0 0 .02.2l.557 3.245c.059.342.088.513.033.615a.333.333 0 0 1-.232.168c-.114.021-.267-.06-.575-.22l-2.915-1.534a.692.692 0 0 0-.184-.081.334.334 0 0 0-.128 0 .743.743 0 0 0-.184.081L4.837 13.51c-.308.162-.461.242-.575.222a.333.333 0 0 1-.232-.17c-.055-.1-.026-.272.033-.614l.556-3.245a.73.73 0 0 0 .02-.2.334.334 0 0 0-.04-.122.73.73 0 0 0-.133-.15L2.107 6.933c-.249-.242-.373-.363-.388-.477-.013-.1.02-.2.088-.273.08-.084.252-.11.595-.16l3.26-.476c.102-.015.153-.022.197-.043a.333.333 0 0 0 .104-.075.705.705 0 0 0 .1-.174l1.459-2.953Z"/></svg>